<?xml version="1.0" encoding="utf-8"?>
<!-- Generator: Adobe Illustrator 27.2.0, SVG Export Plug-In . SVG Version: 6.00 Build 0)  -->
<svg version="1.1" id="Layer_1" xmlns="http://www.w3.org/2000/svg" xmlns:xlink="http://www.w3.org/1999/xlink" x="0px" y="0px"
	 viewBox="0 0 1920 716" style="enable-background:new 0 0 1920 716;" xml:space="preserve">
<style type="text/css">
	.st0{fill:#C4C4C4;filter:url(#Adobe_OpacityMaskFilter);}
	.st1{mask:url(#mask0_00000172419961816359884730000010158164477385714066_);}
	.st2{fill:#FEC00B;}
	.st3{fill:#FEC00B;stroke:#FCBD56;stroke-width:3;}
	.st4{fill:#FEC00B;stroke:#FCBD56;stroke-width:6;}
</style>
<defs>
	<filter id="Adobe_OpacityMaskFilter" filterUnits="userSpaceOnUse" x="63.2" y="55" width="1834.8" height="600.4">
		<feColorMatrix  type="matrix" values="1 0 0 0 0  0 1 0 0 0  0 0 1 0 0  0 0 0 1 0"/>
	</filter>
</defs>
<mask maskUnits="userSpaceOnUse" x="63.2" y="55" width="1834.8" height="600.4" id="mask0_00000172419961816359884730000010158164477385714066_">
	<rect class="st0" width="1920" height="716"/>
</mask>
<g class="st1">
	
		<rect x="1011.5" y="643.8" transform="matrix(0.8455 -0.534 0.534 0.8455 -185.4337 649.2127)" class="st2" width="35.1" height="2.4"/>
	<g>
		<path class="st2" d="M569.4,112.8l-23.3-23.3l31.8-8.5L569.4,112.8z"/>
	</g>
	<circle class="st3" cx="91.7" cy="219" r="27"/>
	<path class="st2" d="M285.6,643l7.2,11.5l-13.6,0.5L285.6,643z"/>
	<circle class="st3" cx="1763.2" cy="163" r="27"/>
	<path class="st4" d="M1858.1,444.3l34.1,9.9l-25.6,24.6L1858.1,444.3z"/>
	<circle cx="1344.5" cy="57.5" r="2.5"/>
	<circle cx="1354.5" cy="57.5" r="2.5"/>
	<circle cx="1364.5" cy="57.5" r="2.5"/>
	<circle cx="1374.5" cy="57.5" r="2.5"/>
	<circle cx="1384.5" cy="57.5" r="2.5"/>
	<circle cx="1394.5" cy="57.5" r="2.5"/>
	<circle cx="1344.5" cy="67.5" r="2.5"/>
	<circle cx="1354.5" cy="67.5" r="2.5"/>
	<circle cx="1364.5" cy="67.5" r="2.5"/>
	<circle cx="1374.5" cy="67.5" r="2.5"/>
	<circle cx="1384.5" cy="67.5" r="2.5"/>
	<circle cx="1394.5" cy="67.5" r="2.5"/>
	<circle cx="1344.5" cy="77.5" r="2.5"/>
	<circle cx="1354.5" cy="77.5" r="2.5"/>
	<circle cx="1364.5" cy="77.5" r="2.5"/>
	<circle cx="1374.5" cy="77.5" r="2.5"/>
	<circle cx="1384.5" cy="77.5" r="2.5"/>
	<circle cx="1394.5" cy="77.5" r="2.5"/>
	<circle cx="1344.5" cy="87.5" r="2.5"/>
	<circle cx="1354.5" cy="87.5" r="2.5"/>
	<circle cx="1364.5" cy="87.5" r="2.5"/>
	<circle cx="1374.5" cy="87.5" r="2.5"/>
	<circle cx="1384.5" cy="87.5" r="2.5"/>
	<circle cx="1394.5" cy="87.5" r="2.5"/>
	<circle cx="1344.5" cy="97.5" r="2.5"/>
	<circle cx="1354.5" cy="97.5" r="2.5"/>
	<circle cx="1364.5" cy="97.5" r="2.5"/>
	<circle cx="1374.5" cy="97.5" r="2.5"/>
	<circle cx="1384.5" cy="97.5" r="2.5"/>
	<circle cx="1394.5" cy="97.5" r="2.5"/>
	<circle cx="1344.5" cy="107.5" r="2.5"/>
	<circle cx="1354.5" cy="107.5" r="2.5"/>
	<circle cx="1364.5" cy="107.5" r="2.5"/>
	<circle cx="1374.5" cy="107.5" r="2.5"/>
	<circle cx="1384.5" cy="107.5" r="2.5"/>
	<circle cx="1394.5" cy="107.5" r="2.5"/>
</g>
</svg>
