<svg id="Layer_1" xmlns="http://www.w3.org/2000/svg" width="250.5" height="120.3"><style>.st0{fill:#ee7421}</style><path class="st0" d="M191 69.4c-4.7 0-8.6-3.9-8.6-8.6s3.9-8.6 8.6-8.6 8.6 3.9 8.6 8.6-3.8 8.6-8.6 8.6zm0-12.2c-2 0-3.6 1.6-3.6 3.6s1.6 3.6 3.6 3.6 3.6-1.6 3.6-3.6-1.6-3.6-3.6-3.6zm-10.3-19.8l1.1 1.8-2.7 1.6-1.2-1.9-6.1 3.7-1.3-2.2 1.8-10.1 2.9-1.8 3.9 6.4 1.4-.8 1.5 2.5-1.3.8zm-6.5-1.8v.3c-.1 1-.3 1.8-.5 2.4.5-.4 1.2-.8 2-1.3l.8-.5-.6-1.1c-.4-.6-1.1-1.8-1.4-2.3 0 .6-.1 1.2-.3 2.5zm16.8 2.5c-3.3 0-5.7-2.3-5.6-6.5 0-4.2 2.5-6.5 5.7-6.5 3.3 0 5.7 2.3 5.6 6.5 0 4.2-2.4 6.5-5.7 6.5zm.1-10c-1.3 0-2.1 1.2-2.1 3.4s.8 3.5 2.1 3.5 2.1-1.2 2.1-3.4-.8-3.5-2.1-3.5zm17.6 13.8l-1.1 1.8-2.7-1.6 1.2-1.9-6.1-3.7 1.3-2.2 9.8-3.1L214 33l-3.9 6.4 1.4.8-1.5 2.5-1.3-.8zm-1.3-6.6l-.3.1c-1 .3-1.7.6-2.4.7.6.3 1.3.7 2 1.2l.8.5.6-1.1c.4-.6 1.1-1.8 1.4-2.3-.4.3-.9.5-2.1.9z"/><path class="st0" d="M191 79.6c-10.4 0-18.8-8.4-18.8-18.8S180.6 42 191 42s18.8 8.4 18.8 18.8-8.4 18.8-18.8 18.8zm0-32.6c-7.6 0-13.8 6.2-13.8 13.8s6.2 13.8 13.8 13.8 13.8-6.2 13.8-13.8S198.6 47 191 47z"/><path class="st0" d="M191 110.5c-27.4 0-49.7-22.3-49.7-49.7s22.3-49.7 49.7-49.7 49.7 22.3 49.7 49.7-22.2 49.7-49.7 49.7zm0-94.4c-24.7 0-44.7 20.1-44.7 44.7 0 24.7 20.1 44.7 44.7 44.7s44.7-20.1 44.7-44.7c.1-24.7-20-44.7-44.7-44.7z"/><path class="st0" d="M191 120.3c-32.8 0-59.5-26.7-59.5-59.5S158.2 1.3 191 1.3s59.5 26.7 59.5 59.5-26.7 59.5-59.5 59.5zm0-114c-30 0-54.5 24.4-54.5 54.5s24.4 54.5 54.5 54.5 54.5-24.4 54.5-54.5S221.1 6.3 191 6.3z"/><path class="st0" d="M133.6 68.7H59.8c-4.8 0-8.8-3.9-8.8-8.8s3.9-8.8 8.8-8.8h73.8c1.4 0 2.5 1.1 2.5 2.5v12.6c0 1.4-1.1 2.5-2.5 2.5zM59.8 56.2c-2.1 0-3.8 1.7-3.8 3.8s1.7 3.8 3.8 3.8H131v-7.6H59.8z"/><path class="st0" d="M59.5 120.3C26.7 120.3 0 93.6 0 60.8S26.7 1.3 59.5 1.3c30 0 55.4 22.4 59 52.1.2 1.4-.8 2.6-2.2 2.8-1.4.2-2.6-.8-2.8-2.2-3.4-27.2-26.6-47.7-54.1-47.7-30 0-54.5 24.4-54.5 54.5s24.4 54.5 54.5 54.5c28.1 0 51.4-21 54.2-48.9.1-1.4 1.4-2.4 2.7-2.2 1.4.1 2.4 1.4 2.2 2.7-2.9 30.4-28.3 53.4-59 53.4z"/><path class="st0" d="M60 79.6c-10.4 0-18.8-8.4-18.8-18.8S49.6 42 60 42c7 0 13.3 3.8 16.6 10 .6 1.2.2 2.7-1 3.4-1.2.6-2.7.2-3.4-1-2.4-4.5-7.1-7.3-12.2-7.3-7.6 0-13.8 6.2-13.8 13.8S52.4 74.7 60 74.7c5.9 0 11.1-3.7 13.1-9.3.5-1.3 1.9-2 3.2-1.5 1.3.5 2 1.9 1.5 3.2C75.2 74.5 68 79.6 60 79.6z"/><path class="st0" d="M60 110.5c-27.4 0-49.7-22.3-49.7-49.7S32.6 11.1 60 11.1c24.7 0 45.3 17.7 49.1 42 .2 1.4-.7 2.6-2.1 2.9-1.4.2-2.6-.7-2.9-2.1-3.4-21.9-22-37.7-44.2-37.7-24.7 0-44.7 20.1-44.7 44.7 0 24.7 20.1 44.7 44.7 44.7 22.7 0 41.8-16.9 44.4-39.4.2-1.4 1.4-2.3 2.8-2.2 1.4.2 2.4 1.4 2.2 2.8-2.8 24.9-24.1 43.7-49.3 43.7z"/></svg>